<?xml version="1.0" encoding="UTF-8" standalone="no"?>
<!-- Generator: Adobe Illustrator 21.0.0, SVG Export Plug-In . SVG Version: 6.00 Build 0)  -->

<svg
   xmlns:dc="http://purl.org/dc/elements/1.1/"
   xmlns:cc="http://creativecommons.org/ns#"
   xmlns:rdf="http://www.w3.org/1999/02/22-rdf-syntax-ns#"
   xmlns:svg="http://www.w3.org/2000/svg"
   xmlns="http://www.w3.org/2000/svg"
   xmlns:sodipodi="http://sodipodi.sourceforge.net/DTD/sodipodi-0.dtd"
   xmlns:inkscape="http://www.inkscape.org/namespaces/inkscape"
   version="1.1"
   id="Ebene_2"
   x="0px"
   y="0px"
   viewBox="0 0 38.3 22"
   xml:space="preserve"
   sodipodi:docname="destiny2.svg"
   style="enable-background:new 0 0 38.3 22;"
   inkscape:version="0.92.2 (5c3e80d, 2017-08-06)"><metadata
     id="metadata139"><rdf:RDF><cc:Work
         rdf:about=""><dc:format>image/svg+xml</dc:format><dc:type
           rdf:resource="http://purl.org/dc/dcmitype/StillImage" /><dc:title></dc:title></cc:Work></rdf:RDF></metadata><defs
     id="defs137" /><sodipodi:namedview
     pagecolor="#ffffff"
     bordercolor="#666666"
     borderopacity="1"
     objecttolerance="10"
     gridtolerance="10"
     guidetolerance="10"
     inkscape:pageopacity="0"
     inkscape:pageshadow="2"
     inkscape:window-width="1920"
     inkscape:window-height="1017"
     id="namedview135"
     showgrid="false"
     fit-margin-top="50"
     fit-margin-left="50"
     fit-margin-right="50"
     fit-margin-bottom="50"
     inkscape:zoom="3.7075719"
     inkscape:cx="78.07032"
     inkscape:cy="-17.551239"
     inkscape:window-x="1912"
     inkscape:window-y="-8"
     inkscape:window-maximized="1"
     inkscape:current-layer="Ebene_2" /><g
     id="layer1"
     transform="translate(0 -826.74)"><path
       id="path4147"
       d="M10.6,846.2c-0.8-0.3-1.5-0.9-1.7-1.7c-0.1-0.2-0.2-0.9-0.3-1.5c-0.4-3.8-1.6-5.9-4.4-7.9   c-1.3-0.9-1.7-1.5-1.8-2.6c-0.1-1.6,1.2-3.1,2.7-3.2c0.7,0,1.2,0.1,2.4,0.8c0.5,0.3,0.9,0.5,1,0.6c0,0,0.1,1.1,0.1,3   c0,2.8,0,2.9,0.2,3.4c0.5,1.2,1.6,1.9,2.9,1.9c1-0.1,1.9-0.7,2.4-1.6l0.2-0.5l0-3l0-3l0.3-0.1c0.2-0.1,0.6-0.4,1-0.6   c0.9-0.5,1.5-0.7,2.2-0.7c1.7,0.1,2.9,1.8,2.6,3.5c-0.2,1-0.6,1.5-1.8,2.3c-1.4,1-2.6,2.3-3.3,3.7c-0.6,1.3-0.8,2.1-1.1,4.6   c-0.2,1.2-0.6,2-1.4,2.5C12.3,846.3,11.3,846.4,10.6,846.2L10.6,846.2L10.6,846.2z M22.4,845.8c0.2-1.9,1-3.4,2.4-4.9   c0.7-0.7,1.3-1.2,2.9-2.4c2.3-1.8,3-2.6,3-4c0-1.1-0.4-1.9-1.2-2.3c-0.4-0.2-0.5-0.2-1.1-0.2c-0.5,0-0.7,0-1,0.2   c-0.5,0.2-1,0.8-1.2,1.3c-0.2,0.4-0.4,1.2-0.4,1.7l0,0.3l-1.5,0l-1.5,0l0-0.5c0.1-2.2,1-4,2.5-4.9c1.4-0.8,3.5-1,5.1-0.5   c1,0.3,1.5,0.6,2.2,1.3c0.5,0.5,0.7,0.8,0.9,1.2c0.5,0.9,0.6,1.4,0.5,2.6c0,0.9,0,1.1-0.2,1.7c-0.6,1.6-1.4,2.5-4.2,4.4   c-1.5,1-2.2,1.7-2.7,2.3l-0.3,0.5l3.8,0l3.8,0v1.4v1.4h-5.9h-5.9L22.4,845.8L22.4,845.8z M7.1,845.7c-0.5-0.2-0.4-1.1,0.2-1.1   c0.5,0,0.8,0.7,0.4,1C7.5,845.8,7.4,845.8,7.1,845.7L7.1,845.7z M7.7,845.5c0.2-0.2,0.2-0.5,0-0.7c-0.2-0.2-0.5-0.2-0.7,0   c-0.2,0.2-0.2,0.5,0,0.7C7.3,845.8,7.5,845.7,7.7,845.5z M7.2,845.2c0-0.3,0-0.4,0.2-0.4c0.2,0,0.3,0.2,0.2,0.3   c-0.1,0.1-0.1,0.1,0,0.2c0.1,0.1,0.1,0.1,0,0.1c0,0-0.1-0.1-0.2-0.2l-0.1-0.2l-0.1,0.2C7.2,845.5,7.2,845.5,7.2,845.2L7.2,845.2z    M7.5,845c0,0,0-0.1-0.1-0.1c-0.1,0-0.1,0-0.1,0.1C7.2,845.1,7.5,845.1,7.5,845L7.5,845z M10.7,837.8c-0.4-0.2-0.7-0.5-1-0.9   c-0.2-0.4-0.2-0.4-0.2-2.5c0-2.3,0-2.3,0.5-2.9c0.6-0.8,2.2-0.8,2.9,0c0.4,0.6,0.4,0.7,0.5,2.8c0,2.1,0,2.4-0.4,2.9   C12.5,837.8,11.4,838.1,10.7,837.8L10.7,837.8z" /></g></svg>