<?xml version="1.0" encoding="UTF-8" standalone="no"?>
<!-- Created with Inkscape (http://www.inkscape.org/) -->

<svg
   xmlns:dc="http://purl.org/dc/elements/1.1/"
   xmlns:cc="http://creativecommons.org/ns#"
   xmlns:rdf="http://www.w3.org/1999/02/22-rdf-syntax-ns#"
   xmlns:svg="http://www.w3.org/2000/svg"
   xmlns="http://www.w3.org/2000/svg"
   xmlns:sodipodi="http://sodipodi.sourceforge.net/DTD/sodipodi-0.dtd"
   xmlns:inkscape="http://www.inkscape.org/namespaces/inkscape"
   id="svg2"
   version="1.1"
   inkscape:version="0.91 r13725"
   xml:space="preserve"
   width="527.9054"
   height="115.8275"
   viewBox="0 0 527.9054 115.8275"
   sodipodi:docname="Guitar Hero Live.svg"><metadata
     id="metadata8"><rdf:RDF><cc:Work
         rdf:about=""><dc:format>image/svg+xml</dc:format><dc:type
           rdf:resource="http://purl.org/dc/dcmitype/StillImage" /><dc:title></dc:title></cc:Work></rdf:RDF></metadata><defs
     id="defs6" /><sodipodi:namedview
     pagecolor="#ffffff"
     bordercolor="#666666"
     borderopacity="1"
     objecttolerance="10"
     gridtolerance="10"
     guidetolerance="10"
     inkscape:pageopacity="0"
     inkscape:pageshadow="2"
     inkscape:window-width="1366"
     inkscape:window-height="705"
     id="namedview4"
     showgrid="false"
     inkscape:zoom="1.8430934"
     inkscape:cx="258.433"
     inkscape:cy="68.12011"
     inkscape:window-x="-8"
     inkscape:window-y="-8"
     inkscape:window-maximized="1"
     inkscape:current-layer="g10" /><g
     id="g10"
     inkscape:groupmode="layer"
     inkscape:label="Guitar Hero Live"
     transform="matrix(1.25,0,0,-1.25,-41.764625,293.38125)"><g
       id="g12"
       transform="matrix(1.0083179,0,0,1.014459,-2.9107489,-3.6804162)"><path
         d="m 411.77,233.942 c 7.078,-0.051 14.472,-0.477 21.632,-2.621 12.555,-3.766 19.164,-12.051 20.649,-24.157 0.937,-7.609 -0.821,-14.859 -3.785,-21.863 C 445,172.86 437.02,162.047 427.273,152.36 c -2.96,-2.946 -6.421,-5.332 -10.308,-7.18 -3.703,-1.762 -7.305,-1.695 -10.985,0 -4.347,2.004 -8.148,4.742 -11.386,8.059 -9.789,10.031 -17.844,21.136 -22.836,34.019 -2.199,5.672 -3.504,11.531 -3.219,17.606 0.324,6.953 2.457,13.316 7.426,18.636 4.219,4.524 9.734,6.985 15.812,8.469 6.438,1.574 13.012,1.945 19.993,1.973 z m 23.535,-30.926 c -0.055,0.055 -0.114,0.109 -0.172,0.16 0.578,2.59 1.168,5.176 1.726,7.77 0.129,0.597 0.461,0.769 1.086,0.757 1.782,-0.035 3.563,0.004 5.344,-0.023 0.547,-0.008 0.918,0.098 1.039,0.66 0.336,1.617 0.692,3.231 1.059,4.934 -4.301,0 -8.469,-0.016 -12.637,0.015 -0.727,0.004 -0.812,-0.343 -0.93,-0.882 -1.351,-6.059 -2.738,-12.114 -4.101,-18.172 -1.317,-5.856 -2.617,-11.711 -3.957,-17.7 4.328,0 8.574,0.004 12.82,-0.003 0.426,0 0.629,0.179 0.711,0.55 0.352,1.629 0.711,3.258 1.109,5.078 l -7.078,0 c 0.758,3.532 1.496,6.879 2.192,10.239 0.144,0.695 0.468,1.023 1.23,1.16 1.317,0.234 2.613,0.586 3.914,0.891 0.477,0.109 0.883,0.25 0.996,0.812 0.317,1.586 0.684,3.168 1.055,4.879 -1.887,-0.391 -3.645,-0.758 -5.406,-1.125 z m -18.082,14.195 -6.301,0 c -1.055,-12.226 -2.106,-24.398 -3.164,-36.676 2.504,0 4.801,0.047 7.094,-0.023 0.941,-0.031 1.336,0.262 1.636,1.098 4.114,11.414 8.27,22.816 12.399,34.226 0.156,0.434 0.511,0.86 0.293,1.399 l -5.41,0 c -3.149,-8.922 -6.504,-17.766 -9.325,-26.785 1.297,8.859 1.907,17.765 2.778,26.761 z m -23.715,0.063 c -1.809,0 -3.457,-0.043 -5.102,0.019 -0.89,0.032 -1.25,-0.172 -1.445,-1.074 -1.66,-7.578 -3.402,-15.141 -5.109,-22.715 -0.965,-4.289 -1.911,-8.582 -2.872,-12.894 l 12.45,0 c 0.398,1.84 0.777,3.609 1.195,5.543 l -6.109,0 c 2.339,10.414 4.648,20.691 6.992,31.121 z m 8.574,-0.043 c -2.746,-12.207 -5.488,-24.403 -8.25,-36.696 1.852,0 3.543,0.043 5.231,-0.019 0.886,-0.035 1.14,0.273 1.312,1.066 1.316,6.024 2.707,12.028 4.063,18.039 1.316,5.848 2.613,11.7 3.933,17.61 l -6.289,0 z"
         style="fill:#d3a016;fill-opacity:1;fill-rule:nonzero;stroke:none"
         id="path14"
         inkscape:connector-curvature="0" /><path
         d="m 315.988,160 -10.586,0 c -0.437,7.5 -0.871,14.973 -1.308,22.528 -1.254,-0.289 -2.379,-0.575 -3.52,-0.801 -0.668,-0.129 -0.754,-0.594 -0.863,-1.074 -1.488,-6.536 -2.977,-13.067 -4.469,-19.602 -0.078,-0.348 -0.187,-0.695 -0.285,-1.043 l -10.18,0 c 4.914,21.535 9.817,43 14.715,64.438 0.375,0.281 0.781,0.183 1.164,0.183 5.606,0.004 11.211,0.012 16.813,-0.019 1.168,-0.004 2.347,-0.102 3.5,-0.27 3.902,-0.57 5.769,-2.633 5.789,-6.351 0.015,-2.797 -0.707,-5.497 -1.32,-8.207 -1.254,-5.54 -2.575,-11.067 -3.809,-16.61 -0.742,-3.332 -2.699,-5.832 -5.836,-7.41 -1.121,-0.566 -1.234,-1.176 -1.168,-2.191 0.48,-7.817 0.91,-15.641 1.363,-23.571 z m -8.297,55.543 c -1.832,-8.043 -3.64,-15.972 -5.48,-24.035 2.594,0.621 4.941,1.188 7.293,1.746 1.351,0.321 2.164,1.102 2.457,2.399 0.773,3.464 1.586,6.925 2.359,10.39 0.559,2.508 1.336,4.981 1.571,7.547 0.125,1.406 -0.328,1.899 -1.809,1.942 -2.082,0.054 -4.164,0.011 -6.391,0.011 z"
         style="fill:#000000;fill-opacity:1;fill-rule:nonzero;stroke:none"
         id="path16"
         inkscape:connector-curvature="0" /><path
         d="m 198.285,182.43 c -0.234,0.02 -0.281,0.035 -0.32,0.027 -3.879,-0.812 -3.856,-0.816 -4.676,-4.504 -1.293,-5.781 -2.625,-11.554 -3.945,-17.332 -0.043,-0.195 -0.141,-0.379 -0.227,-0.609 l -10.16,0 c 4.918,21.535 9.824,43.02 14.742,64.559 0.356,0.023 0.649,0.058 0.942,0.058 5.691,0 11.386,-0.004 17.078,-0.004 1.437,-0.004 2.863,-0.133 4.258,-0.465 3.293,-0.777 4.828,-2.554 4.941,-5.75 0.102,-2.882 -0.637,-5.66 -1.273,-8.453 -1.278,-5.574 -2.575,-11.148 -3.817,-16.73 -0.785,-3.52 -2.918,-6.043 -6.25,-7.699 -0.617,-0.305 -0.855,-0.594 -0.812,-1.293 0.437,-7.129 0.824,-14.262 1.226,-21.395 0.051,-0.894 0.11,-1.789 0.168,-2.781 l -10.586,0 c -0.429,7.445 -0.859,14.887 -1.289,22.371 z m 3.59,33.117 c -1.82,-7.98 -3.637,-15.922 -5.492,-24.051 2.742,0.668 5.301,1.25 7.824,1.93 1.02,0.274 1.648,1.031 1.879,2.027 0.391,1.668 0.797,3.34 1.156,5.016 0.926,4.313 2.133,8.57 2.821,12.926 0.242,1.539 -0.239,2.094 -1.836,2.137 -2.082,0.054 -4.164,0.015 -6.352,0.015 z"
         style="fill:#000000;fill-opacity:1;fill-rule:nonzero;stroke:none"
         id="path18"
         inkscape:connector-curvature="0" /><path
         d="m 355.5,189.235 c 2.082,-1.106 4.031,-2.137 6.191,-3.282 -2.371,-1.011 -4.515,-1.961 -6.695,-2.836 -0.707,-0.285 -1.043,-0.66 -1.215,-1.386 -0.992,-4.215 -1.777,-8.473 -2.984,-12.641 -0.035,-0.121 -0.051,-0.242 -0.09,-0.359 -2.113,-6.571 -5.668,-9.121 -13.012,-9.219 -2.992,-0.039 -5.988,-0.137 -8.98,0.113 -6.445,0.547 -7.715,3.723 -6.996,8.758 0.84,5.899 2.476,11.66 3.781,17.477 2.129,9.488 4.324,18.961 6.512,28.433 0.367,1.594 0.984,3.117 1.718,4.602 1.938,3.906 5.418,5.64 9.774,5.875 4.027,0.219 8.074,0.355 12.098,-0.153 4.023,-0.511 5.871,-2.523 5.91,-6.332 0.039,-3.921 -1.196,-7.648 -2.02,-11.429 -1.277,-5.86 -2.648,-11.703 -3.992,-17.621 z m -19.305,-20.692 c 3.957,0 4.407,0.289 5.215,3.809 2.711,11.789 5.387,23.582 8.067,35.375 0.425,1.875 0.859,3.746 1.214,5.633 0.344,1.804 -0.218,2.41 -2.152,2.461 -0.609,0.015 -1.215,0.011 -1.824,0.011 -3.77,0 -4.219,-0.34 -5.059,-3.843 -0.008,-0.039 -0.011,-0.079 -0.019,-0.118 -2.977,-13.109 -5.957,-26.218 -8.918,-39.328 -0.848,-3.738 -0.594,-4.004 3.476,-4 z"
         style="fill:#000000;fill-opacity:1;fill-rule:nonzero;stroke:none"
         id="path20"
         inkscape:connector-curvature="0" /><path
         d="m 251.371,159.992 -10.215,0 c 1.703,7.504 3.387,14.93 5.071,22.34 -0.332,0.344 -0.672,0.141 -0.985,0.067 -2.398,-0.559 -4.789,-1.145 -7.191,-1.692 -0.742,-0.168 -1.113,-0.461 -1.285,-1.246 -1.426,-6.465 -2.926,-12.91 -4.418,-19.433 l -10.2,0 c 1.579,6.972 3.153,13.91 4.758,20.992 -1.984,1.062 -4,2.14 -6.172,3.301 2.27,0.972 4.329,1.918 6.446,2.73 0.914,0.348 1.328,0.844 1.527,1.731 2.516,11.199 5.07,22.394 7.606,33.589 0.468,2.063 0.453,2.067 2.664,2.067 l 8.023,0 c -2.582,-11.367 -5.129,-22.578 -7.734,-34.051 2.441,0.582 4.582,1.258 6.781,1.563 1.988,0.277 2.707,1.144 3.101,2.968 2.043,9.5 4.278,18.969 6.403,28.457 0.176,0.782 0.426,1.098 1.324,1.082 2.988,-0.05 5.98,-0.019 9.145,-0.019 -4.895,-21.539 -9.762,-42.949 -14.649,-64.446 z"
         style="fill:#000000;fill-opacity:1;fill-rule:nonzero;stroke:none"
         id="path22"
         inkscape:connector-curvature="0" /><path
         d="m 58.961,169.012 c 1.195,5.281 2.375,10.477 3.605,15.898 -1.91,-0.433 -3.574,-0.812 -5.246,-1.191 -0.32,0.461 -0.062,0.883 0.032,1.297 0.507,2.273 1.023,4.543 1.539,6.816 0.109,0.477 0.191,0.868 0.875,1.024 5,1.156 9.988,2.367 15.16,3.605 -0.649,-2.914 -1.258,-5.691 -1.891,-8.461 -2.051,-9.004 -4.125,-18.004 -6.14,-27.015 -0.184,-0.805 -0.465,-1.059 -1.336,-1.051 -5.563,0.035 -11.121,0.023 -16.684,0.027 -1.395,0.004 -2.773,0.164 -4.125,0.485 -3.078,0.73 -4.613,2.519 -4.773,5.492 -0.157,2.894 0.558,5.672 1.191,8.465 0.539,2.39 1.059,4.785 1.66,7.164 0.219,0.875 -0.058,1.32 -0.887,1.718 -1.648,0.79 -3.242,1.684 -5.101,2.665 2.355,1.003 4.453,1.925 6.578,2.785 0.777,0.316 1.184,0.715 1.371,1.558 1.84,8.172 3.727,16.332 5.656,24.485 0.297,1.265 0.817,2.496 1.36,3.691 1.664,3.652 4.648,5.699 8.84,6.164 3.984,0.442 8,0.504 11.96,0.059 5.454,-0.614 7.333,-3.071 6.668,-8.219 -0.578,-4.5 -1.882,-8.867 -2.789,-13.309 -0.086,-0.422 -0.3,-0.656 -0.722,-0.754 -3.184,-0.75 -6.364,-1.496 -9.719,-2.281 0.766,3.395 1.508,6.649 2.234,9.903 0.286,1.277 0.657,2.539 0.711,3.851 0.059,1.422 -0.343,1.867 -1.836,1.918 -1.172,0.043 -2.347,0.039 -3.519,0.02 -1.985,-0.036 -2.766,-0.532 -3.266,-2.352 -0.672,-2.445 -1.23,-4.918 -1.789,-7.387 -2.512,-11.039 -5.008,-22.078 -7.504,-33.117 -0.816,-3.617 -0.523,-3.949 3.403,-3.949 1.472,-0.004 2.941,-0.004 4.484,-0.004 z"
         style="fill:#000000;fill-opacity:1;fill-rule:nonzero;stroke:none"
         id="path24"
         inkscape:connector-curvature="0" /><path
         d="m 176.316,160.004 -10.25,0 c 0.344,2.996 0.68,5.926 1.039,9.074 -1.187,-0.281 -2.21,-0.519 -3.234,-0.761 -1.008,-0.239 -2.008,-0.633 -3.027,-0.696 -2.879,-0.175 -4.383,-1.546 -4.797,-4.211 -0.18,-1.152 -0.711,-2.253 -1.094,-3.414 l -10.113,0 c -0.067,0.774 0.328,1.43 0.555,2.098 6.921,20.445 13.863,40.883 20.793,61.324 0.21,0.617 0.378,1.051 1.273,1.043 5.168,-0.051 10.336,-0.023 15.504,-0.027 0.207,0 0.414,-0.043 0.773,-0.078 -2.472,-21.453 -4.941,-42.832 -7.422,-64.352 z m -15.695,16.965 c 2.211,0.516 4.125,1.055 6.078,1.383 1.395,0.234 1.715,0.914 1.852,2.133 0.859,7.625 1.816,15.238 2.734,22.855 0.305,2.524 0.602,5.051 0.899,7.578 -0.071,0.016 -0.141,0.028 -0.215,0.043 -3.754,-11.25 -7.512,-22.5 -11.348,-33.992 z"
         style="fill:#000000;fill-opacity:1;fill-rule:nonzero;stroke:none"
         id="path26"
         inkscape:connector-curvature="0" /><path
         d="m 106.02,224.371 9.558,0 c -1.144,-5.054 -2.258,-10.031 -3.394,-15.004 -2.942,-12.906 -5.887,-25.808 -8.844,-38.71 -0.41,-1.797 -1.031,-3.528 -1.852,-5.204 -1.699,-3.476 -4.668,-5.293 -8.613,-5.711 -4.02,-0.425 -8.062,-0.425 -12.09,-0.039 -4.871,0.465 -7.019,3.047 -6.531,7.668 0.387,3.621 1.344,7.137 2.148,10.684 3.407,15.059 6.848,30.113 10.231,45.18 0.215,0.949 0.574,1.25 1.597,1.226 2.903,-0.066 5.809,-0.023 8.907,-0.023 -0.516,-2.285 -1,-4.453 -1.489,-6.621 -3.468,-15.301 -6.933,-30.598 -10.402,-45.899 -0.019,-0.078 -0.051,-0.156 -0.066,-0.234 -0.516,-2.621 -0.067,-3.125 2.797,-3.141 0.519,-0.004 1.039,-0.004 1.562,0 3.102,0.016 3.762,0.457 4.43,3.356 2.715,11.785 5.39,23.574 8.078,35.367 1.242,5.457 2.473,10.914 3.715,16.371 0.054,0.238 0.16,0.461 0.258,0.734 z"
         style="fill:#000000;fill-opacity:1;fill-rule:nonzero;stroke:none"
         id="path28"
         inkscape:connector-curvature="0" /><path
         d="m 269.891,169.024 12.371,0 c -0.664,-2.942 -1.297,-5.758 -1.926,-8.574 -0.09,-0.407 -0.359,-0.5 -0.754,-0.5 -7.336,0.003 -14.672,0 -22.113,0 4.894,21.535 9.765,42.953 14.644,64.421 l 22.731,0 c -0.684,-3.023 -1.344,-5.953 -2.035,-9.004 l -9.137,0 c -3.418,0 -3.399,0 -4.09,-3.121 -0.879,-3.949 -1.789,-7.89 -2.687,-11.832 -0.09,-0.39 -0.278,-0.773 -0.071,-1.32 3.5,0.824 7.004,1.648 10.727,2.523 -0.426,-1.933 -1.016,-3.699 -1.156,-5.492 -0.219,-2.8 -1.532,-4.226 -4.582,-4.55 -2.176,-0.231 -4.293,-0.969 -6.438,-1.469 -0.477,-0.11 -0.883,-0.184 -1.012,-0.766 -1.472,-6.617 -2.976,-13.23 -4.468,-19.848 -0.028,-0.117 -0.004,-0.242 -0.004,-0.468 z"
         style="fill:#000000;fill-opacity:1;fill-rule:nonzero;stroke:none"
         id="path30"
         inkscape:connector-curvature="0" /><path
         d="m 141.402,215.379 -7.339,0 c 0.656,2.938 1.289,5.758 1.917,8.574 0.09,0.418 0.395,0.485 0.774,0.485 8.34,-0.008 16.68,-0.016 25.016,-0.028 0.074,0 0.144,-0.074 0.343,-0.183 -1.011,-2.777 -2.035,-5.578 -3.047,-8.383 -0.214,-0.594 -0.73,-0.473 -1.187,-0.473 -2.039,-0.004 -4.074,-0.004 -6.25,-0.004 -4.199,-18.464 -8.391,-36.89 -12.594,-55.363 l -10.215,0 c 4.192,18.442 8.368,36.821 12.582,55.375 z"
         style="fill:#000000;fill-opacity:0.952941;fill-rule:nonzero;stroke:none"
         id="path32"
         inkscape:connector-curvature="0" /><path
         d="m 131.746,224.438 c -4.898,-21.547 -9.766,-42.953 -14.644,-64.418 l -10.192,0 c 0.387,1.769 0.758,3.504 1.153,5.23 4.402,19.348 8.82,38.696 13.187,58.051 0.211,0.926 0.57,1.172 1.523,1.156 2.946,-0.054 5.887,-0.019 8.973,-0.019 z"
         style="fill:#000000;fill-opacity:1;fill-rule:nonzero;stroke:none"
         id="path34"
         inkscape:connector-curvature="0" /><path
         d="m 417.223,217.211 c -0.871,-8.996 -1.481,-17.902 -2.778,-26.761 2.821,9.019 6.176,17.863 9.325,26.785 l 5.41,0 c 0.218,-0.539 -0.137,-0.965 -0.293,-1.399 -4.129,-11.41 -8.285,-22.812 -12.399,-34.226 -0.3,-0.836 -0.695,-1.129 -1.636,-1.098 -2.293,0.07 -4.59,0.023 -7.094,0.023 1.058,12.278 2.109,24.45 3.164,36.676 l 6.301,0 z"
         style="fill:#fffffe;fill-opacity:1;fill-rule:nonzero;stroke:none"
         id="path36"
         inkscape:connector-curvature="0" /><path
         d="m 435.305,203.016 c 1.761,0.367 3.519,0.734 5.406,1.125 -0.371,-1.711 -0.738,-3.293 -1.055,-4.879 -0.109,-0.562 -0.519,-0.703 -0.996,-0.812 -1.301,-0.305 -2.597,-0.657 -3.914,-0.891 -0.758,-0.137 -1.086,-0.465 -1.23,-1.16 -0.696,-3.36 -1.43,-6.707 -2.192,-10.239 l 7.078,0 c -0.398,-1.82 -0.757,-3.449 -1.109,-5.078 -0.082,-0.371 -0.285,-0.55 -0.711,-0.55 -4.246,0.007 -8.492,0.003 -12.82,0.003 1.34,5.989 2.64,11.844 3.957,17.7 1.363,6.058 2.75,12.113 4.101,18.172 0.118,0.539 0.207,0.886 0.93,0.882 4.168,-0.027 8.336,-0.015 12.637,-0.015 -0.367,-1.703 -0.723,-3.317 -1.059,-4.934 -0.121,-0.562 -0.492,-0.668 -1.039,-0.66 -1.781,0.027 -3.562,-0.012 -5.344,0.023 -0.625,0.012 -0.957,-0.16 -1.086,-0.757 -0.558,-2.594 -1.148,-5.18 -1.726,-7.77 0.004,-0.09 0.008,-0.176 0.008,-0.262 0.054,0.032 0.109,0.067 0.164,0.102 z"
         style="fill:#fffffe;fill-opacity:1;fill-rule:nonzero;stroke:none"
         id="path38"
         inkscape:connector-curvature="0" /><path
         d="m 393.508,217.274 c -2.344,-10.43 -4.653,-20.707 -6.992,-31.121 l 6.109,0 c -0.418,-1.934 -0.797,-3.703 -1.195,-5.543 l -12.45,0 c 0.961,4.312 1.907,8.605 2.872,12.894 1.707,7.571 3.449,15.137 5.109,22.715 0.195,0.902 0.555,1.106 1.445,1.074 1.645,-0.062 3.293,-0.019 5.102,-0.019 z"
         style="fill:#fffffe;fill-opacity:1;fill-rule:nonzero;stroke:none"
         id="path40"
         inkscape:connector-curvature="0" /><path
         d="m 402.082,217.231 6.289,0 c -1.32,-5.91 -2.621,-11.762 -3.933,-17.61 -1.356,-6.011 -2.747,-12.015 -4.063,-18.039 -0.176,-0.793 -0.426,-1.101 -1.312,-1.066 -1.688,0.062 -3.379,0.019 -5.231,0.019 2.762,12.293 5.504,24.493 8.25,36.696 z"
         style="fill:#fffffe;fill-opacity:1;fill-rule:nonzero;stroke:none"
         id="path42"
         inkscape:connector-curvature="0" /><path
         d="m 356.555,160.832 c -2.055,-0.027 -3.625,1.43 -3.649,3.383 -0.019,1.934 1.543,3.426 3.594,3.43 1.984,0.004 3.516,-1.414 3.578,-3.317 0.063,-1.929 -1.492,-3.472 -3.523,-3.496 z m 0.812,2.977 c 0.789,0.492 1.617,1.078 1.004,2.047 -0.836,1.32 -2.262,0.523 -3.613,0.82 0.168,-1.711 -0.231,-3.269 0.289,-4.945 0.723,0.433 0.473,0.926 0.543,1.324 0.051,0.293 -0.152,0.687 0.336,0.816 0.488,0.129 0.695,-0.187 0.898,-0.519 0.215,-0.352 0.461,-0.688 0.676,-1.039 0.223,-0.371 0.5,-0.555 1.008,-0.301 -0.371,0.59 -0.742,1.172 -1.141,1.797 z"
         style="fill:#fffffe;fill-opacity:1;fill-rule:nonzero;stroke:none"
         id="path44"
         inkscape:connector-curvature="0" /><path
         d="m 435.305,203.016 c -0.055,-0.035 -0.11,-0.07 -0.164,-0.106 -0.004,0.09 -0.004,0.176 -0.008,0.266 0.058,-0.051 0.117,-0.105 0.172,-0.16 z"
         style="fill:#d3a016;fill-opacity:1;fill-rule:nonzero;stroke:none"
         id="path46"
         inkscape:connector-curvature="0" /><path
         d="m 356.434,168.539 c -1.094,0 -1.996,-0.394 -2.77,-1.183 -0.707,-0.793 -1.16,-1.715 -1.16,-2.903 0,-1.121 0.453,-2.043 1.16,-2.898 0.774,-0.727 1.676,-1.188 2.77,-1.188 1.093,0 2.062,0.461 2.832,1.188 0.773,0.855 1.16,1.777 1.16,2.898 0,1.188 -0.387,2.11 -1.16,2.903 -0.77,0.789 -1.739,1.183 -2.832,1.183 z m -2.125,-1.91 c 0.578,0.66 1.285,0.988 2.125,0.988 0.902,0 1.675,-0.328 2.254,-0.988 0.578,-0.594 0.902,-1.316 0.902,-2.176 0,-0.789 -0.324,-1.582 -0.902,-2.238 -0.579,-0.66 -1.352,-0.988 -2.254,-0.988 -0.836,0 -1.547,0.328 -2.125,0.988 -0.645,0.656 -0.965,1.449 -0.965,2.238 0,0.86 0.32,1.582 0.965,2.176 z"
         style="fill:#000000;fill-opacity:1;fill-rule:nonzero;stroke:none"
         id="path48"
         inkscape:connector-curvature="0" /><path
         d="m 357.789,164.629 0.258,0.789 -0.129,0.465 -0.387,0.328 -0.449,0.196 -2.254,0.07 0,-4.024 0.965,0 0,1.45 0.387,0 1.226,-1.45 1.223,0 -1.481,1.782 0.641,0.394 z m -1.031,1.055 0.129,-0.199 0.066,-0.196 -0.066,-0.199 -0.129,-0.328 -0.258,-0.133 -0.707,0 0,1.188 0.707,0 0.258,-0.133 z"
         style="fill:#000000;fill-opacity:1;fill-rule:nonzero;stroke:none"
         id="path50"
         inkscape:connector-curvature="0" /></g></g></svg>