<?xml version="1.0" encoding="UTF-8" standalone="no"?>
<!-- Created with Inkscape (http://www.inkscape.org/) -->

<svg
   xmlns:dc="http://purl.org/dc/elements/1.1/"
   xmlns:cc="http://creativecommons.org/ns#"
   xmlns:rdf="http://www.w3.org/1999/02/22-rdf-syntax-ns#"
   xmlns:svg="http://www.w3.org/2000/svg"
   xmlns="http://www.w3.org/2000/svg"
   xmlns:sodipodi="http://sodipodi.sourceforge.net/DTD/sodipodi-0.dtd"
   xmlns:inkscape="http://www.inkscape.org/namespaces/inkscape"
   width="25.4mm"
   height="13.92365mm"
   viewBox="0 0 25.4 13.92365"
   version="1.1"
   id="svg8"
   inkscape:version="0.92.3 (2405546, 2018-03-11)"
   sodipodi:docname="logo.svg">
  <defs
     id="defs2" />
  <sodipodi:namedview
     id="base"
     pagecolor="#ffffff"
     bordercolor="#666666"
     borderopacity="1.0"
     inkscape:pageopacity="0.0"
     inkscape:pageshadow="2"
     inkscape:zoom="2.8284271"
     inkscape:cx="-0.31606452"
     inkscape:cy="39.503672"
     inkscape:document-units="mm"
     inkscape:current-layer="layer1"
     showgrid="false"
     inkscape:window-width="1920"
     inkscape:window-height="1017"
     inkscape:window-x="-8"
     inkscape:window-y="-8"
     inkscape:window-maximized="1">
    <inkscape:grid
       type="xygrid"
       id="grid4791"
       originx="0"
       originy="-5.0000002e-005" />
  </sodipodi:namedview>
  <metadata
     id="metadata5">
    <rdf:RDF>
      <cc:Work
         rdf:about="">
        <dc:format>image/svg+xml</dc:format>
        <dc:type
           rdf:resource="http://purl.org/dc/dcmitype/StillImage" />
        <dc:title></dc:title>
      </cc:Work>
    </rdf:RDF>
  </metadata>
  <g
     inkscape:label="Layer 1"
     inkscape:groupmode="layer"
     id="layer1"
     transform="translate(0,-283.0763)">
    <path
       style="fill:#ffffff;fill-opacity:1;stroke:none;stroke-width:4.39333773;stroke-linecap:round;stroke-linejoin:round;stroke-miterlimit:4;stroke-dasharray:17.57335073, 17.57335073000000136;stroke-dashoffset:0;stroke-opacity:1"
       d="m 22.613478,283.0763 c -0.711697,0 -1.423181,0.27299 -1.968518,0.81841 l -1.258873,1.25888 c -0.313884,-1.19414 -1.38558,-2.07465 -2.68088,-2.07465 -1.542448,0 -2.784202,1.24189 -2.784202,2.7842 v 8.35261 c 0,1.54244 1.241754,2.7842 2.784202,2.7842 1.295582,0 2.369983,-0.88009 2.683599,-2.07451 l 1.256154,1.25609 c 1.090674,1.09071 2.846359,1.09071 3.937034,0 1.090675,-1.09043 1.090675,-2.84629 0,-3.937 l -2.205065,-2.20509 2.205065,-2.20773 c 1.090675,-1.09071 1.090675,-2.84643 0,-3.937 -0.545337,-0.54542 -1.256823,-0.81841 -1.968516,-0.81841 z m -19.1332266,0.003 C 1.5581616,283.07894 0,284.63712 0,286.55919 v 6.96051 c 0,1.92207 1.5581616,3.48025 3.4802514,3.48025 h 2.0881508 c 3.84418,0 6.9605028,-3.11636 6.9605028,-6.96051 0,-3.84414 -3.1163228,-6.9605 -6.9605028,-6.9605 z"
       id="rect4827"
       inkscape:connector-curvature="0" />
  </g>
</svg>
