<?xml version="1.0" standalone="no"?>
<!DOCTYPE svg PUBLIC "-//W3C//DTD SVG 20010904//EN"
 "http://www.w3.org/TR/2001/REC-SVG-20010904/DTD/svg10.dtd">
<svg version="1.0" xmlns="http://www.w3.org/2000/svg"
 width="512.000000pt" height="512.000000pt" viewBox="0 0 512.000000 512.000000"
 preserveAspectRatio="xMidYMid meet">
<metadata>
Created by potrace 1.11, written by Peter Selinger 2001-2013
</metadata>
<g transform="translate(0.000000,512.000000) scale(0.100000,-0.100000)"
fill="#000000" stroke="none">
<path d="M1545 4535 c-306 -72 -542 -257 -681 -534 -39 -76 -52 -116 -91 -266
-4 -16 -8 -534 -10 -1150 -2 -1231 -4 -1195 58 -1365 37 -101 76 -175 132
-250 67 -90 226 -240 255 -240 6 0 12 -4 12 -8 0 -12 155 -87 230 -112 132
-44 192 -49 630 -48 426 0 507 5 680 39 67 13 228 56 255 69 11 4 43 16 70 26
87 31 276 130 383 201 160 105 332 264 461 423 186 229 343 573 395 865 25
139 30 196 30 355 1 196 -4 262 -29 390 -3 14 -7 36 -10 49 -36 193 -147 463
-270 661 -86 136 -266 339 -415 465 -232 197 -623 379 -901 420 -24 4 -64 11
-89 17 -26 6 -243 12 -520 13 -470 4 -476 3 -575 -20z"/>
</g>
</svg>
